<svg width="277" height="87" viewBox="0 0 277 87" fill="none" xmlns="http://www.w3.org/2000/svg">
<path d="M43.3583 0H233.505C257.485 0 276.863 19.4386 276.863 43.3583C276.863 67.3386 257.425 86.7166 233.505 86.7166H43.3583C19.378 86.7166 0 67.278 0 43.3583C0 19.4386 19.4386 0 43.3583 0Z" fill="#ED505D"/>
<path d="M100.705 23.1326V33.0032H103.672C105.247 33.0032 106.458 32.5188 107.427 31.6104C108.396 30.7021 108.82 29.491 108.82 28.0376C108.82 26.5843 108.335 25.3731 107.427 24.4648C106.518 23.5565 105.247 23.1326 103.672 23.1326H100.705ZM103.672 24.5859C104.762 24.5859 105.671 24.8887 106.276 25.5548C106.942 26.1604 107.245 27.0082 107.245 28.0982C107.245 29.1276 106.942 29.9754 106.276 30.6415C105.61 31.3077 104.762 31.6104 103.672 31.6104H102.219V24.5859H103.672Z" fill="white"/>
<path d="M113.846 25.4944C112.816 25.4944 111.908 25.8577 111.181 26.5844C110.455 27.3111 110.091 28.2194 110.091 29.3094C110.091 30.3994 110.455 31.3078 111.181 32.0345C111.908 32.7611 112.756 33.1245 113.846 33.185C114.875 33.185 115.784 32.8217 116.51 32.095C117.237 31.3683 117.6 30.46 117.6 29.37C117.6 28.28 117.237 27.3716 116.51 26.645C115.723 25.8577 114.875 25.4944 113.846 25.4944ZM113.846 26.9477C114.451 26.9477 114.996 27.19 115.42 27.6744C115.844 28.0983 116.026 28.7039 116.026 29.37C116.026 30.0361 115.784 30.6417 115.42 31.0656C114.996 31.4895 114.451 31.7317 113.846 31.7317C113.24 31.7317 112.695 31.4895 112.271 31.0656C111.847 30.5811 111.666 30.0361 111.666 29.37C111.666 28.7039 111.847 28.0983 112.271 27.6744C112.695 27.19 113.24 26.9477 113.846 26.9477Z" fill="white"/>
<path d="M126.502 30.3994L124.322 25.4944H123.777L121.658 30.46L119.78 25.6761H118.145L121.294 33.185H121.839L124.08 28.28L126.32 33.185H126.865L129.954 25.6761H128.319L126.502 30.3994Z" fill="white"/>
<path d="M134.798 25.4944C133.95 25.4944 133.224 25.7972 132.679 26.4027V25.6761H131.286V33.0034H132.8V28.6433C132.8 27.6139 133.466 26.9477 134.435 26.9477C135.343 26.9477 135.949 27.6139 135.949 28.6433V33.0034H137.463V28.4011C137.463 26.645 136.433 25.4944 134.798 25.4944Z" fill="white"/>
<path d="M139.522 21.8003V33.0032H141.036V21.8003H139.522Z" fill="white"/>
<path d="M146.486 25.4944C145.456 25.4944 144.548 25.8577 143.821 26.5844C143.094 27.3111 142.731 28.2194 142.731 29.3094C142.731 30.3994 143.094 31.3078 143.821 32.0345C144.548 32.7611 145.396 33.1245 146.486 33.185C147.515 33.185 148.423 32.8217 149.15 32.095C149.877 31.3683 150.24 30.46 150.24 29.37C150.24 28.28 149.877 27.3716 149.15 26.645C148.423 25.8577 147.515 25.4944 146.486 25.4944ZM146.546 26.9477C147.152 26.9477 147.697 27.19 148.121 27.6744C148.545 28.0983 148.726 28.7039 148.726 29.37C148.726 30.0361 148.484 30.6417 148.121 31.0656C147.697 31.4895 147.152 31.7317 146.546 31.7317C145.941 31.7317 145.396 31.4895 144.972 31.0656C144.548 30.5811 144.366 30.0361 144.366 29.37C144.366 28.7039 144.548 28.0983 144.972 27.6744C145.335 27.19 145.88 26.9477 146.546 26.9477Z" fill="white"/>
<path d="M154.721 25.4944C153.45 25.4944 152.481 26.0394 151.754 27.0689L152.602 27.9772C153.207 27.2505 153.873 26.8872 154.54 26.8872C155.509 26.8872 156.054 27.4322 156.054 28.4616V28.9461H154.055C152.481 28.9461 151.451 29.7939 151.451 31.0656C151.451 32.3372 152.42 33.185 153.934 33.185C154.903 33.185 155.63 32.8823 156.175 32.2161V33.0639H157.567V28.6433C157.567 26.5844 156.417 25.4944 154.721 25.4944ZM154.237 31.9739C153.51 31.9739 153.026 31.6106 153.026 31.005C153.026 30.3994 153.45 30.0967 154.297 30.0967H156.114V30.2178C156.054 31.2472 155.266 31.9739 154.237 31.9739Z" fill="white"/>
<path d="M165.016 26.5842C164.471 25.8576 163.684 25.4942 162.654 25.4942C161.685 25.4942 160.837 25.8576 160.171 26.5842C159.505 27.3109 159.202 28.2193 159.202 29.3093C159.202 30.3993 159.505 31.3076 160.171 32.0343C160.837 32.761 161.625 33.1243 162.654 33.1243C163.744 33.1243 164.592 32.7004 165.137 31.9132V32.9427H166.53V21.7397H165.016V26.5842ZM162.957 31.7315C162.351 31.7315 161.806 31.4893 161.382 31.0654C160.959 30.6415 160.777 30.036 160.777 29.3093C160.777 28.5826 160.959 28.0376 161.382 27.6137C161.806 27.1898 162.291 26.9476 162.957 26.9476C163.502 26.9476 164.047 27.1293 164.471 27.5531C164.895 27.977 165.076 28.5826 165.076 29.3093C165.076 30.9443 164.107 31.7315 162.957 31.7315Z" fill="white"/>
<path d="M176.037 25.4944C175.008 25.4944 174.099 25.8577 173.373 26.5844C172.646 27.3111 172.283 28.2194 172.283 29.3094C172.283 30.3994 172.646 31.3078 173.373 32.0345C174.099 32.7611 174.947 33.1245 176.037 33.185C177.067 33.185 177.975 32.8217 178.702 32.095C179.428 31.3683 179.792 30.46 179.792 29.37C179.792 28.28 179.428 27.3716 178.702 26.645C177.914 25.8577 177.067 25.4944 176.037 25.4944ZM176.037 26.9477C176.643 26.9477 177.188 27.19 177.612 27.6744C178.035 28.0983 178.217 28.7039 178.217 29.37C178.217 30.0361 177.975 30.6417 177.612 31.0656C177.188 31.4895 176.643 31.7317 176.037 31.7317C175.432 31.7317 174.887 31.4895 174.463 31.0656C174.039 30.5811 173.857 30.0361 173.857 29.37C173.857 28.7039 174.039 28.0983 174.463 27.6744C174.887 27.19 175.432 26.9477 176.037 26.9477Z" fill="white"/>
<path d="M184.999 25.4944C184.152 25.4944 183.425 25.7972 182.88 26.4027V25.6761H181.487V33.0034H183.001V28.6433C183.001 27.6139 183.667 26.9477 184.636 26.9477C185.544 26.9477 186.15 27.6139 186.15 28.6433V33.0034H187.664V28.4011C187.664 26.645 186.695 25.4944 184.999 25.4944Z" fill="white"/>
<path d="M197.05 31.7317C196.142 31.7317 195.657 31.4289 195.657 30.46V27.0083H197.777V25.6761H195.657V23.7383H194.143V25.6761H192.993V27.0083H194.143V30.5811C194.143 32.2767 195.112 33.1245 196.747 33.1245C197.111 33.1245 197.535 33.0639 198.019 32.9428V31.6106C197.535 31.7317 197.232 31.7317 197.05 31.7317Z" fill="white"/>
<path d="M203.045 25.4942C202.197 25.4942 201.531 25.797 200.986 26.4026V21.8003H199.472V33.0032H200.986V28.6432C200.986 27.6137 201.652 26.9476 202.621 26.9476C203.53 26.9476 204.135 27.6137 204.135 28.6432V33.0032H205.649V28.4009C205.649 26.7054 204.68 25.4942 203.045 25.4942Z" fill="white"/>
<path d="M214.248 28.8855C214.248 27.9166 213.945 27.1294 213.34 26.4633C212.734 25.7972 211.947 25.4944 211.039 25.4944C210.009 25.4944 209.161 25.8577 208.435 26.645C207.708 27.3716 207.405 28.28 207.405 29.37C207.405 30.46 207.769 31.3683 208.495 32.095C209.222 32.8217 210.13 33.185 211.22 33.185C212.31 33.185 213.219 32.8217 214.006 31.9739L213.279 30.8839C212.674 31.4895 211.947 31.7317 211.22 31.7317C210.009 31.7317 209.101 31.005 208.919 29.7939H214.188C214.188 29.4911 214.248 29.1883 214.248 28.8855ZM210.917 26.8266C211.947 26.8266 212.734 27.5533 212.734 28.6433H208.919C209.101 27.5533 209.888 26.8266 210.917 26.8266Z" fill="white"/>
<path d="M116.631 59.3452L108.759 40.5122H107.79L99.9784 59.3452H103.006L104.278 56.2568H112.271L113.543 59.3452H116.631ZM105.307 53.7135L108.275 46.0228L111.181 53.7135H105.307Z" fill="white"/>
<path d="M125.957 45.2356C124.019 45.2356 122.324 46.0834 121.355 47.5367V45.5989H118.69V64.4319H121.536V57.7102C122.566 59.0424 124.08 59.648 125.957 59.648C127.834 59.648 129.409 58.9819 130.62 57.5891C131.831 56.1963 132.437 54.5007 132.437 52.4418C132.437 50.3829 131.831 48.6873 130.62 47.2945C129.409 45.9017 127.834 45.2356 125.957 45.2356ZM125.473 56.923C124.383 56.923 123.414 56.5596 122.626 55.7724C121.839 54.9852 121.476 53.8951 121.476 52.3812C121.476 49.414 123.293 47.9001 125.473 47.9001C126.623 47.9001 127.592 48.324 128.379 49.1718C129.167 50.0195 129.53 51.1095 129.53 52.4418C129.53 53.774 129.167 54.8035 128.379 55.6513C127.592 56.4991 126.623 56.923 125.473 56.923Z" fill="white"/>
<path d="M142.368 45.2356C140.43 45.2356 138.734 46.0834 137.765 47.5367V45.5989H135.101V64.4319H137.947V57.7102C138.977 59.0424 140.491 59.648 142.368 59.648C144.245 59.648 145.819 58.9819 147.031 57.5891C148.242 56.1963 148.847 54.5007 148.847 52.4418C148.847 50.3829 148.242 48.6873 147.031 47.2945C145.819 45.9017 144.245 45.2356 142.368 45.2356ZM141.944 56.923C140.854 56.923 139.885 56.5596 139.098 55.7724C138.31 54.9852 137.947 53.8951 137.947 52.3812C137.947 49.414 139.764 47.9001 141.944 47.9001C143.094 47.9001 144.063 48.324 144.851 49.1718C145.638 50.0195 146.001 51.1095 146.001 52.4418C146.001 53.774 145.638 54.8035 144.851 55.6513C144.003 56.4991 143.094 56.923 141.944 56.923Z" fill="white"/>
<path d="M164.168 40.5122C162.594 40.5122 161.261 40.9967 160.171 41.905C159.081 42.8133 158.536 44.0245 158.536 45.5384C158.536 47.9001 160.05 49.414 162.654 50.6857L164.592 51.6546C166.469 52.5629 167.196 53.1079 167.196 54.4401C167.196 56.0146 165.985 57.0441 164.107 57.0441C162.291 57.0441 160.777 56.0752 159.445 54.0768L157.446 55.6513C158.839 58.1341 161.261 59.648 164.168 59.648C165.864 59.648 167.317 59.1635 168.407 58.1946C169.558 57.2257 170.103 55.8935 170.103 54.319C170.103 51.8968 168.71 50.4434 165.864 49.0506L163.865 48.0817C162.049 47.1734 161.382 46.689 161.382 45.4173C161.382 43.9639 162.594 43.1767 164.047 43.1767C165.561 43.1767 166.833 43.9639 167.801 45.4173L169.8 43.8428C168.77 41.8444 166.651 40.5122 164.168 40.5122Z" fill="white"/>
<path d="M179.065 56.9835C177.369 56.9835 176.461 56.378 176.461 54.6218V48.0818H180.397V45.5384H176.461V41.905H173.615V45.5384H171.435V48.0818H173.615V54.8035C173.615 58.013 175.432 59.5875 178.459 59.5875C179.125 59.5875 179.913 59.4663 180.821 59.2847V56.8019C180.034 56.923 179.489 56.9835 179.065 56.9835Z" fill="white"/>
<path d="M188.996 45.2356C187.058 45.2356 185.363 45.9623 184.03 47.2945C182.698 48.6873 182.032 50.3829 182.032 52.3812C182.032 54.3796 182.698 56.1357 184.03 57.468C185.363 58.8608 186.998 59.5269 188.996 59.5874C190.934 59.5874 192.569 58.8608 193.962 57.5285C195.354 56.1357 196.021 54.4402 196.021 52.3812C196.021 50.3829 195.294 48.6267 193.962 47.2945C192.629 45.9623 190.934 45.2356 188.996 45.2356ZM189.057 47.9606C190.207 47.9606 191.176 48.3845 191.963 49.2929C192.751 50.1407 193.174 51.1701 193.174 52.5023C193.174 53.774 192.751 54.8035 191.963 55.7118C191.176 56.5596 190.207 56.9835 189.057 56.9835C187.846 56.9835 186.877 56.5596 186.15 55.7118C185.363 54.864 184.999 53.774 184.999 52.5023C184.999 51.2307 185.363 50.1407 186.15 49.2929C186.877 48.3845 187.846 47.9606 189.057 47.9606Z" fill="white"/>
<path d="M205.225 45.4172C203.59 45.4172 202.318 46.0834 201.35 47.355V45.5383H198.685V59.2846H201.531V51.9573C201.531 49.5351 203.166 48.1423 205.407 48.1423H206.255V45.5383C206.012 45.4778 205.649 45.4172 205.225 45.4172Z" fill="white"/>
<path d="M220.183 51.5335C220.183 49.7168 219.577 48.2029 218.426 46.9917C217.276 45.7806 215.823 45.175 214.066 45.175C212.129 45.175 210.494 45.9017 209.222 47.2945C207.89 48.6873 207.284 50.3829 207.284 52.3813C207.284 54.4402 207.95 56.1357 209.282 57.5285C210.615 58.9213 212.31 59.5874 214.369 59.5874C216.368 59.5874 218.124 58.8608 219.638 57.3469L218.305 55.3485C217.094 56.4385 215.823 56.9835 214.43 56.9835C212.129 56.9835 210.494 55.6513 210.13 53.3501H220.001C220.061 52.7446 220.183 52.139 220.183 51.5335ZM213.945 47.7184C215.883 47.7184 217.336 49.0507 217.336 51.1096H210.13C210.554 49.0507 212.068 47.7184 213.945 47.7184Z" fill="white"/>
<path d="M86.8377 42.1475C86.7771 36.8791 91.44 34.3357 91.6216 34.2146C89.0177 30.6418 84.8999 30.1573 83.5071 30.0968C80.1159 29.7334 76.7853 32.0346 75.0292 32.0346C73.2731 32.0346 70.548 30.1573 67.7019 30.2179C64.008 30.2784 60.4957 32.2768 58.6185 35.4257C54.6823 41.7841 57.589 51.1703 61.4041 56.3176C63.2813 58.861 65.4613 61.6466 68.368 61.586C71.2142 61.4649 72.2436 59.8904 75.6348 59.8904C79.0259 59.8904 79.9948 61.586 82.9621 61.5255C85.9899 61.4649 87.9277 58.9821 89.7444 56.4387C91.9244 53.532 92.7722 50.6859 92.8328 50.5648C92.7116 50.5042 86.8982 48.4453 86.8377 42.1475ZM81.2665 26.7662C82.7804 25.01 83.8099 22.5878 83.5071 20.105C81.3271 20.1655 78.5415 21.4978 76.967 23.2539C75.5742 24.7678 74.3025 27.3112 74.6659 29.6729C77.1487 29.8545 79.692 28.4617 81.2665 26.7662Z" fill="white"/>
</svg>
