<svg width="277" height="87" viewBox="0 0 277 87" fill="none" xmlns="http://www.w3.org/2000/svg">
<path d="M43.3583 0H233.505C257.485 0 276.863 19.4386 276.863 43.3583C276.863 67.3386 257.425 86.7166 233.505 86.7166H43.3583C19.378 86.7166 0 67.278 0 43.3583C0 19.4386 19.4386 0 43.3583 0Z" fill="white"/>
<path d="M100.705 23.1328V33.0035H103.672C105.247 33.0035 106.458 32.519 107.427 31.6107C108.396 30.7023 108.82 29.4912 108.82 28.0379C108.82 26.5845 108.335 25.3734 107.427 24.465C106.518 23.5567 105.247 23.1328 103.672 23.1328H100.705ZM103.672 24.5862C104.762 24.5862 105.671 24.8889 106.276 25.5551C106.942 26.1606 107.245 27.0084 107.245 28.0984C107.245 29.1279 106.942 29.9757 106.276 30.6418C105.61 31.3079 104.762 31.6107 103.672 31.6107H102.219V24.5862H103.672Z" fill="#010202"/>
<path d="M113.846 25.4941C112.816 25.4941 111.908 25.8575 111.181 26.5842C110.455 27.3108 110.091 28.2192 110.091 29.3092C110.091 30.3992 110.455 31.3075 111.181 32.0342C111.908 32.7609 112.756 33.1242 113.846 33.1848C114.875 33.1848 115.784 32.8215 116.51 32.0948C117.237 31.3681 117.6 30.4598 117.6 29.3697C117.6 28.2797 117.237 27.3714 116.51 26.6447C115.723 25.8575 114.875 25.4941 113.846 25.4941ZM113.846 26.9475C114.451 26.9475 114.996 27.1897 115.42 27.6742C115.844 28.0981 116.026 28.7036 116.026 29.3697C116.026 30.0359 115.784 30.6414 115.42 31.0653C114.996 31.4892 114.451 31.7314 113.846 31.7314C113.24 31.7314 112.695 31.4892 112.271 31.0653C111.847 30.5809 111.666 30.0359 111.666 29.3697C111.666 28.7036 111.847 28.0981 112.271 27.6742C112.695 27.1897 113.24 26.9475 113.846 26.9475Z" fill="#010202"/>
<path d="M126.502 30.3992L124.322 25.4941H123.777L121.658 30.4598L119.78 25.6758H118.145L121.294 33.1848H121.839L124.08 28.2797L126.32 33.1848H126.865L129.954 25.6758H128.319L126.502 30.3992Z" fill="#010202"/>
<path d="M134.798 25.4941C133.95 25.4941 133.224 25.7969 132.679 26.4025V25.6758H131.286V33.0031H132.8V28.6431C132.8 27.6136 133.466 26.9475 134.435 26.9475C135.343 26.9475 135.949 27.6136 135.949 28.6431V33.0031H137.463V28.4008C137.463 26.6447 136.433 25.4941 134.798 25.4941Z" fill="#010202"/>
<path d="M139.522 21.8003V33.0032H141.036V21.8003H139.522Z" fill="#010202"/>
<path d="M146.486 25.4941C145.456 25.4941 144.548 25.8575 143.821 26.5842C143.094 27.3108 142.731 28.2192 142.731 29.3092C142.731 30.3992 143.094 31.3075 143.821 32.0342C144.548 32.7609 145.396 33.1242 146.486 33.1848C147.515 33.1848 148.423 32.8215 149.15 32.0948C149.877 31.3681 150.24 30.4598 150.24 29.3697C150.24 28.2797 149.877 27.3714 149.15 26.6447C148.423 25.8575 147.515 25.4941 146.486 25.4941ZM146.546 26.9475C147.152 26.9475 147.697 27.1897 148.121 27.6742C148.545 28.0981 148.726 28.7036 148.726 29.3697C148.726 30.0359 148.484 30.6414 148.121 31.0653C147.697 31.4892 147.152 31.7314 146.546 31.7314C145.941 31.7314 145.396 31.4892 144.972 31.0653C144.548 30.5809 144.366 30.0359 144.366 29.3697C144.366 28.7036 144.548 28.0981 144.972 27.6742C145.335 27.1897 145.88 26.9475 146.546 26.9475Z" fill="#010202"/>
<path d="M154.721 25.4941C153.45 25.4941 152.481 26.0392 151.754 27.0686L152.602 27.977C153.207 27.2503 153.873 26.8869 154.54 26.8869C155.509 26.8869 156.054 27.4319 156.054 28.4614V28.9459H154.055C152.481 28.9459 151.451 29.7936 151.451 31.0653C151.451 32.337 152.42 33.1848 153.934 33.1848C154.903 33.1848 155.63 32.882 156.175 32.2159V33.0637H157.567V28.6431C157.567 26.5842 156.417 25.4941 154.721 25.4941ZM154.237 31.9737C153.51 31.9737 153.026 31.6103 153.026 31.0048C153.026 30.3992 153.45 30.0964 154.297 30.0964H156.114V30.2175C156.054 31.247 155.266 31.9737 154.237 31.9737Z" fill="#010202"/>
<path d="M165.016 26.5842C164.471 25.8576 163.684 25.4942 162.654 25.4942C161.685 25.4942 160.837 25.8576 160.171 26.5842C159.505 27.3109 159.202 28.2193 159.202 29.3093C159.202 30.3993 159.505 31.3076 160.171 32.0343C160.837 32.761 161.625 33.1243 162.654 33.1243C163.744 33.1243 164.592 32.7004 165.137 31.9132V32.9427H166.53V21.7397H165.016V26.5842ZM162.957 31.7315C162.351 31.7315 161.806 31.4893 161.382 31.0654C160.959 30.6415 160.777 30.036 160.777 29.3093C160.777 28.5826 160.959 28.0376 161.382 27.6137C161.806 27.1898 162.291 26.9476 162.957 26.9476C163.502 26.9476 164.047 27.1293 164.471 27.5531C164.895 27.977 165.076 28.5826 165.076 29.3093C165.076 30.9443 164.107 31.7315 162.957 31.7315Z" fill="#010202"/>
<path d="M176.037 25.4941C175.008 25.4941 174.099 25.8575 173.373 26.5842C172.646 27.3108 172.283 28.2192 172.283 29.3092C172.283 30.3992 172.646 31.3075 173.373 32.0342C174.099 32.7609 174.947 33.1242 176.037 33.1848C177.067 33.1848 177.975 32.8215 178.702 32.0948C179.428 31.3681 179.792 30.4598 179.792 29.3697C179.792 28.2797 179.428 27.3714 178.702 26.6447C177.914 25.8575 177.067 25.4941 176.037 25.4941ZM176.037 26.9475C176.643 26.9475 177.188 27.1897 177.612 27.6742C178.035 28.0981 178.217 28.7036 178.217 29.3697C178.217 30.0359 177.975 30.6414 177.612 31.0653C177.188 31.4892 176.643 31.7314 176.037 31.7314C175.432 31.7314 174.887 31.4892 174.463 31.0653C174.039 30.5809 173.857 30.0359 173.857 29.3697C173.857 28.7036 174.039 28.0981 174.463 27.6742C174.887 27.1897 175.432 26.9475 176.037 26.9475Z" fill="#010202"/>
<path d="M184.999 25.4941C184.152 25.4941 183.425 25.7969 182.88 26.4025V25.6758H181.487V33.0031H183.001V28.6431C183.001 27.6136 183.667 26.9475 184.636 26.9475C185.544 26.9475 186.15 27.6136 186.15 28.6431V33.0031H187.664V28.4008C187.664 26.6447 186.695 25.4941 184.999 25.4941Z" fill="#010202"/>
<path d="M197.05 31.7317C196.142 31.7317 195.657 31.4289 195.657 30.46V27.0083H197.777V25.6761H195.657V23.7383H194.143V25.6761H192.993V27.0083H194.143V30.5811C194.143 32.2767 195.112 33.1245 196.747 33.1245C197.111 33.1245 197.535 33.0639 198.019 32.9428V31.6106C197.535 31.7317 197.232 31.7317 197.05 31.7317Z" fill="#010202"/>
<path d="M203.045 25.4942C202.197 25.4942 201.531 25.797 200.986 26.4026V21.8003H199.472V33.0032H200.986V28.6432C200.986 27.6137 201.652 26.9476 202.621 26.9476C203.53 26.9476 204.135 27.6137 204.135 28.6432V33.0032H205.649V28.4009C205.649 26.7054 204.68 25.4942 203.045 25.4942Z" fill="#010202"/>
<path d="M214.248 28.8853C214.248 27.9164 213.945 27.1292 213.34 26.463C212.734 25.7969 211.947 25.4941 211.039 25.4941C210.009 25.4941 209.161 25.8575 208.435 26.6447C207.708 27.3714 207.405 28.2797 207.405 29.3697C207.405 30.4598 207.769 31.3681 208.495 32.0948C209.222 32.8215 210.13 33.1848 211.22 33.1848C212.31 33.1848 213.219 32.8215 214.006 31.9737L213.279 30.8836C212.674 31.4892 211.947 31.7314 211.22 31.7314C210.009 31.7314 209.101 31.0048 208.919 29.7936H214.188C214.188 29.4909 214.248 29.1881 214.248 28.8853ZM210.917 26.8264C211.947 26.8264 212.734 27.5531 212.734 28.6431H208.919C209.101 27.5531 209.888 26.8264 210.917 26.8264Z" fill="#010202"/>
<path d="M116.631 59.3452L108.759 40.5122H107.79L99.9784 59.3452H103.006L104.278 56.2568H112.271L113.543 59.3452H116.631ZM105.307 53.7135L108.275 46.0228L111.181 53.7135H105.307Z" fill="#010202"/>
<path d="M125.957 45.2358C124.019 45.2358 122.324 46.0836 121.355 47.537V45.5992H118.69V64.4322H121.536V57.7104C122.566 59.0427 124.08 59.6482 125.957 59.6482C127.834 59.6482 129.409 58.9821 130.62 57.5893C131.831 56.1965 132.437 54.5009 132.437 52.442C132.437 50.3831 131.831 48.6875 130.62 47.2947C129.409 45.902 127.834 45.2358 125.957 45.2358ZM125.473 56.9232C124.383 56.9232 123.414 56.5599 122.626 55.7726C121.839 54.9854 121.476 53.8954 121.476 52.3815C121.476 49.4142 123.293 47.9003 125.473 47.9003C126.623 47.9003 127.592 48.3242 128.379 49.172C129.167 50.0198 129.53 51.1098 129.53 52.442C129.53 53.7743 129.167 54.8037 128.379 55.6515C127.592 56.4993 126.623 56.9232 125.473 56.9232Z" fill="#010202"/>
<path d="M142.368 45.2358C140.43 45.2358 138.734 46.0836 137.765 47.537V45.5992H135.101V64.4322H137.947V57.7104C138.977 59.0427 140.491 59.6482 142.368 59.6482C144.245 59.6482 145.819 58.9821 147.031 57.5893C148.242 56.1965 148.847 54.5009 148.847 52.442C148.847 50.3831 148.242 48.6875 147.031 47.2947C145.819 45.902 144.245 45.2358 142.368 45.2358ZM141.944 56.9232C140.854 56.9232 139.885 56.5599 139.098 55.7726C138.31 54.9854 137.947 53.8954 137.947 52.3815C137.947 49.4142 139.764 47.9003 141.944 47.9003C143.094 47.9003 144.063 48.3242 144.851 49.172C145.638 50.0198 146.001 51.1098 146.001 52.442C146.001 53.7743 145.638 54.8037 144.851 55.6515C144.003 56.4993 143.094 56.9232 141.944 56.9232Z" fill="#010202"/>
<path d="M164.168 40.5122C162.594 40.5122 161.261 40.9967 160.171 41.905C159.081 42.8133 158.536 44.0245 158.536 45.5384C158.536 47.9001 160.05 49.414 162.654 50.6857L164.592 51.6546C166.469 52.5629 167.196 53.1079 167.196 54.4401C167.196 56.0146 165.985 57.0441 164.107 57.0441C162.291 57.0441 160.777 56.0752 159.445 54.0768L157.446 55.6513C158.839 58.1341 161.261 59.648 164.168 59.648C165.864 59.648 167.317 59.1635 168.407 58.1946C169.558 57.2257 170.103 55.8935 170.103 54.319C170.103 51.8968 168.71 50.4434 165.864 49.0506L163.865 48.0817C162.049 47.1734 161.382 46.689 161.382 45.4173C161.382 43.9639 162.594 43.1767 164.047 43.1767C165.561 43.1767 166.833 43.9639 167.801 45.4173L169.8 43.8428C168.77 41.8444 166.651 40.5122 164.168 40.5122Z" fill="#010202"/>
<path d="M179.065 56.9838C177.369 56.9838 176.461 56.3782 176.461 54.6221V48.082H180.397V45.5386H176.461V41.9053H173.615V45.5386H171.435V48.082H173.615V54.8038C173.615 58.0132 175.432 59.5877 178.459 59.5877C179.125 59.5877 179.913 59.4666 180.821 59.2849V56.8021C180.034 56.9232 179.489 56.9838 179.065 56.9838Z" fill="#010202"/>
<path d="M188.996 45.2358C187.058 45.2358 185.363 45.9625 184.03 47.2947C182.698 48.6875 182.032 50.3831 182.032 52.3815C182.032 54.3798 182.698 56.136 184.03 57.4682C185.363 58.861 186.998 59.5271 188.996 59.5877C190.934 59.5877 192.569 58.861 193.962 57.5288C195.354 56.136 196.021 54.4404 196.021 52.3815C196.021 50.3831 195.294 48.627 193.962 47.2947C192.629 45.9625 190.934 45.2358 188.996 45.2358ZM189.057 47.9609C190.207 47.9609 191.176 48.3848 191.963 49.2931C192.751 50.1409 193.174 51.1704 193.174 52.5026C193.174 53.7743 192.751 54.8037 191.963 55.7121C191.176 56.5599 190.207 56.9838 189.057 56.9838C187.846 56.9838 186.877 56.5599 186.15 55.7121C185.363 54.8643 184.999 53.7743 184.999 52.5026C184.999 51.2309 185.363 50.1409 186.15 49.2931C186.877 48.3848 187.846 47.9609 189.057 47.9609Z" fill="#010202"/>
<path d="M205.225 45.4175C203.59 45.4175 202.318 46.0836 201.35 47.3553V45.5386H198.685V59.2849H201.531V51.9575C201.531 49.5353 203.166 48.1425 205.407 48.1425H206.255V45.5386C206.012 45.478 205.649 45.4175 205.225 45.4175Z" fill="#010202"/>
<path d="M220.183 51.5337C220.183 49.717 219.577 48.2031 218.426 46.992C217.276 45.7809 215.823 45.1753 214.066 45.1753C212.129 45.1753 210.494 45.902 209.222 47.2948C207.89 48.6876 207.284 50.3831 207.284 52.3815C207.284 54.4404 207.95 56.136 209.282 57.5288C210.615 58.9216 212.31 59.5877 214.369 59.5877C216.368 59.5877 218.124 58.861 219.638 57.3471L218.305 55.3487C217.094 56.4388 215.823 56.9838 214.43 56.9838C212.129 56.9838 210.494 55.6515 210.13 53.3504H220.001C220.061 52.7448 220.183 52.1393 220.183 51.5337ZM213.945 47.7187C215.883 47.7187 217.336 49.0509 217.336 51.1098H210.13C210.554 49.0509 212.068 47.7187 213.945 47.7187Z" fill="#010202"/>
<path d="M86.8377 42.1475C86.7771 36.8791 91.44 34.3357 91.6216 34.2146C89.0177 30.6418 84.8999 30.1573 83.5071 30.0968C80.1159 29.7334 76.7853 32.0346 75.0292 32.0346C73.2731 32.0346 70.548 30.1573 67.7019 30.2179C64.008 30.2784 60.4957 32.2768 58.6185 35.4257C54.6823 41.7841 57.589 51.1703 61.4041 56.3176C63.2813 58.861 65.4613 61.6466 68.368 61.586C71.2142 61.4649 72.2436 59.8904 75.6348 59.8904C79.0259 59.8904 79.9948 61.586 82.9621 61.5255C85.9899 61.4649 87.9277 58.9821 89.7444 56.4387C91.9244 53.532 92.7722 50.6859 92.8328 50.5648C92.7116 50.5042 86.8982 48.4453 86.8377 42.1475ZM81.2665 26.7662C82.7804 25.01 83.8099 22.5878 83.5071 20.105C81.3271 20.1655 78.5415 21.4978 76.967 23.2539C75.5742 24.7678 74.3025 27.3112 74.6659 29.6729C77.1487 29.8545 79.692 28.4617 81.2665 26.7662Z" fill="#010202"/>
</svg>
