<svg width="277" height="87" viewBox="0 0 277 87" fill="none" xmlns="http://www.w3.org/2000/svg">
<path d="M43.3583 0H233.505C257.485 0 276.863 19.4386 276.863 43.3583C276.863 67.3386 257.425 86.7166 233.505 86.7166H43.3583C19.378 86.7166 0 67.278 0 43.3583C0 19.378 19.4386 0 43.3583 0Z" fill="#ED505D"/>
<path d="M71.0326 42.4498L50.3829 23.1323C50.2012 23.6168 50.0195 24.1012 50.0195 24.7674V60.3139C50.0195 60.98 50.2012 61.4644 50.3829 61.9489L71.0326 42.4498Z" fill="white"/>
<path d="M73.4547 42.45L80.3581 48.8689L87.9277 44.8722C90.3499 43.6005 90.3499 41.4811 87.9277 40.2094L80.1765 36.031L73.4547 42.45Z" fill="white"/>
<path d="M72.2437 41.2993L78.6021 35.1831L54.319 22.3452C53.2896 21.8607 52.2601 21.6791 51.594 22.0424L72.2437 41.2993Z" fill="white"/>
<path d="M72.2437 43.5398L51.594 62.9784C52.2601 63.2811 53.2896 63.16 54.5007 62.6756L78.9049 49.8376L72.2437 43.5398Z" fill="white"/>
<path d="M105.065 24.4646C103.672 24.4646 102.461 24.949 101.492 25.9179C100.523 26.8868 100.039 28.098 100.039 29.5513C100.039 31.0047 100.523 32.2158 101.492 33.1847C102.461 34.1536 103.672 34.638 105.065 34.638C107.003 34.638 108.638 33.6086 109.486 32.0341V29.2485H105.005V30.6413H107.911V31.7314C107.245 32.7608 106.337 33.2453 105.065 33.2453C104.036 33.2453 103.188 32.8819 102.522 32.2158C101.856 31.4891 101.553 30.6413 101.553 29.5513C101.553 28.5219 101.856 27.6135 102.522 26.9474C103.127 26.2813 103.975 25.9179 105.005 25.9179C106.216 25.9179 107.124 26.463 107.851 27.4924L108.941 26.5235C108.093 25.1913 106.761 24.4646 105.065 24.4646Z" fill="white"/>
<path d="M111.424 24.6462V34.5169H117.843V33.1241H112.937V29.9752H116.51V28.5824H112.937V26.039H117.661V24.6462H111.424Z" fill="white"/>
<path d="M118.63 24.6462V26.039H121.839V34.5169H123.353V26.039H126.563V24.6462H118.63Z" fill="white"/>
<path d="M131.347 24.6462V34.5169H132.86V24.6462H131.347Z" fill="white"/>
<path d="M134.314 24.6462V26.039H137.523V34.5169H139.037V26.039H142.247V24.6462H134.314Z" fill="white"/>
<path d="M151.391 24.4646C149.998 24.4646 148.787 24.949 147.818 25.9179C146.849 26.8868 146.365 28.098 146.365 29.5513C146.365 31.0047 146.849 32.2158 147.818 33.1847C148.787 34.1536 149.937 34.638 151.391 34.638C152.783 34.638 153.934 34.1536 154.903 33.1847C155.872 32.2158 156.356 31.0047 156.356 29.5513C156.356 28.098 155.872 26.8868 154.903 25.9179C153.995 24.949 152.783 24.4646 151.391 24.4646ZM151.391 25.9179C152.36 25.9179 153.207 26.2813 153.813 26.9474C154.479 27.6135 154.782 28.5219 154.782 29.5513C154.782 30.6413 154.479 31.4891 153.813 32.1552C153.147 32.8214 152.36 33.1847 151.391 33.1847C150.422 33.1847 149.574 32.8214 148.968 32.1552C148.302 31.4286 148 30.5808 148 29.5513C148 28.5219 148.302 27.6135 148.968 26.9474C149.635 26.2813 150.422 25.9179 151.391 25.9179Z" fill="white"/>
<path d="M164.531 31.3074L158.779 24.4646H158.234V34.5169H159.747V27.8558L165.561 34.6986H166.106V24.6463H164.592V31.3074H164.531Z" fill="white"/>
<path d="M108.82 41.8445C106.337 41.8445 104.278 42.6923 102.582 44.4484C100.887 46.144 100.039 48.2635 100.039 50.8068C100.039 53.3502 100.887 55.4697 102.582 57.1652C104.278 58.8608 106.337 59.7086 108.82 59.7086C112.15 59.7086 115.117 57.8919 116.571 55.1669V50.3224H108.759V52.8052H113.906V54.6824C112.756 56.4385 111.121 57.2863 108.941 57.2863C107.124 57.2863 105.671 56.6808 104.52 55.4696C103.37 54.2585 102.825 52.6841 102.825 50.8068C102.825 48.9901 103.37 47.4762 104.46 46.2651C105.55 45.054 107.003 44.4484 108.759 44.4484C110.818 44.4484 112.514 45.3568 113.725 47.1734L115.662 45.5384C114.088 43.0556 111.787 41.8445 108.82 41.8445Z" fill="white"/>
<path d="M124.201 46.2649C122.384 46.2649 120.81 46.931 119.538 48.2027C118.266 49.4744 117.661 51.1094 117.661 52.9866C117.661 54.8639 118.266 56.4989 119.538 57.7706C120.81 59.0423 122.324 59.7084 124.201 59.7084C126.018 59.7084 127.532 59.0423 128.864 57.7706C130.135 56.4383 130.802 54.8639 130.802 52.9866C130.802 51.1094 130.135 49.4744 128.864 48.2027C127.592 46.931 126.018 46.2649 124.201 46.2649ZM124.262 48.8082C125.352 48.8082 126.26 49.2321 126.987 50.0194C127.713 50.8066 128.077 51.7755 128.077 52.9866C128.077 54.1372 127.713 55.1667 126.987 55.9539C126.26 56.7411 125.352 57.1045 124.262 57.1045C123.172 57.1045 122.263 56.7411 121.536 55.9539C120.81 55.1667 120.446 54.1372 120.446 52.9866C120.446 51.7755 120.81 50.8066 121.536 50.0194C122.203 49.1716 123.111 48.8082 124.262 48.8082Z" fill="white"/>
<path d="M138.31 46.2649C136.494 46.2649 134.919 46.931 133.648 48.2027C132.376 49.4744 131.77 51.1094 131.77 52.9866C131.77 54.8639 132.376 56.4989 133.648 57.7706C134.919 59.0423 136.433 59.7084 138.31 59.7084C140.127 59.7084 141.641 59.0423 142.973 57.7706C144.245 56.4383 144.911 54.8639 144.911 52.9866C144.911 51.1094 144.245 49.4744 142.973 48.2027C141.702 46.931 140.127 46.2649 138.31 46.2649ZM138.371 48.8082C139.461 48.8082 140.369 49.2321 141.096 50.0194C141.823 50.8066 142.186 51.7755 142.186 52.9866C142.186 54.1372 141.823 55.1667 141.096 55.9539C140.369 56.7411 139.461 57.1045 138.371 57.1045C137.281 57.1045 136.373 56.7411 135.646 55.9539C134.919 55.1667 134.556 54.1372 134.556 52.9866C134.556 51.7755 134.919 50.8066 135.646 50.0194C136.312 49.1716 137.22 48.8082 138.371 48.8082Z" fill="white"/>
<path d="M156.417 48.3844C155.448 46.9916 153.995 46.2649 152.057 46.2649C150.301 46.2649 148.908 46.8705 147.757 48.0816C146.607 49.2927 146.062 50.8066 146.062 52.7444C146.062 54.6216 146.667 56.1961 147.757 57.4072C148.908 58.6184 150.301 59.2239 152.057 59.2239C153.874 59.2239 155.206 58.6184 156.235 57.4072V58.3156C156.235 60.7378 154.782 62.0095 152.541 62.0095C151.088 62.0095 149.635 61.404 148.181 60.1928L146.728 62.1306C148.363 63.7656 150.361 64.5529 152.662 64.5529C156.417 64.5529 158.839 62.2517 158.839 58.1945V46.6888H156.417V48.3844ZM152.481 56.7411C151.391 56.7411 150.543 56.3778 149.756 55.6511C149.029 54.8639 148.666 53.895 148.666 52.7444C148.666 51.5938 149.029 50.6249 149.756 49.8377C150.482 49.111 151.391 48.7477 152.481 48.7477C154.54 48.7477 156.235 50.0799 156.235 52.6839C156.235 54.0161 155.872 54.985 155.145 55.7117C154.358 56.3778 153.51 56.7411 152.481 56.7411Z" fill="white"/>
<path d="M161.382 39.7852V59.4054H164.047V39.7852H161.382Z" fill="white"/>
<path d="M177.975 52.1389C177.975 50.4433 177.43 49.0505 176.34 47.8999C175.25 46.7493 173.918 46.2043 172.283 46.2043C170.466 46.2043 168.952 46.8705 167.741 48.1422C166.53 49.4138 165.924 51.0489 165.924 52.9261C165.924 54.8639 166.53 56.4384 167.801 57.71C169.073 58.9817 170.648 59.6478 172.585 59.6478C174.463 59.6478 176.098 58.9817 177.551 57.5889L176.279 55.7117C175.189 56.7411 173.978 57.2256 172.646 57.2256C170.526 57.2256 168.952 55.9539 168.589 53.8344H177.793C177.914 53.2894 177.975 52.6839 177.975 52.1389ZM172.162 48.6266C173.978 48.6266 175.31 49.8377 175.31 51.7755H168.589C169.013 49.8377 170.405 48.6266 172.162 48.6266Z" fill="white"/>
<path d="M185.726 42.1472V59.4058H188.391V52.7446H191.782C193.477 52.7446 194.81 52.2601 195.9 51.2912C196.929 50.3223 197.474 48.9901 197.474 47.4156C197.474 45.8412 196.929 44.5695 195.9 43.6006C194.87 42.6317 193.477 42.1472 191.782 42.1472H185.726ZM191.782 44.5695C193.659 44.5695 194.749 45.72 194.749 47.4156C194.749 49.1112 193.659 50.2618 191.782 50.2618H188.451V44.5695H191.782Z" fill="white"/>
<path d="M198.988 39.7852V59.4054H201.652V39.7852H198.988Z" fill="white"/>
<path d="M208.98 46.2649C206.739 46.2649 204.983 47.1732 203.772 48.9899L205.286 50.6249C206.315 49.3533 207.466 48.6871 208.737 48.6871C210.433 48.6871 211.402 49.656 211.402 51.4122V52.26H207.89C205.104 52.26 203.348 53.7133 203.348 55.9539C203.348 58.1945 205.043 59.6478 207.647 59.6478C209.343 59.6478 210.675 59.0423 211.584 57.8917V59.345H214.066V51.5938C214.066 48.2027 212.068 46.2649 208.98 46.2649ZM208.192 57.5889C206.921 57.5889 206.012 56.9833 206.012 55.8933C206.012 54.8639 206.739 54.3189 208.192 54.3189H211.341V54.5611C211.402 56.3172 209.949 57.5889 208.192 57.5889Z" fill="white"/>
<path d="M221.454 55.9538L217.881 46.5676H215.035L220.001 58.8605L219.516 60.0717C218.911 61.525 218.063 61.9489 216.791 61.9489C216.61 61.9489 216.125 61.9489 215.338 61.8278V64.1289C216.004 64.3106 216.731 64.3712 217.397 64.3712C219.516 64.3712 220.909 63.2812 221.939 60.8589L227.994 46.5676H225.148L221.454 55.9538Z" fill="white"/>
</svg>
