<svg width="277" height="87" viewBox="0 0 277 87" fill="none" xmlns="http://www.w3.org/2000/svg">
<path d="M43.3583 0H233.505C257.485 0 276.863 19.4386 276.863 43.3583C276.863 67.3386 257.425 86.7166 233.505 86.7166H43.3583C19.378 86.7166 0 67.278 0 43.3583C0 19.378 19.4386 0 43.3583 0Z" fill="white"/>
<path d="M71.0326 42.4498L50.3829 23.1323C50.2012 23.6168 50.0195 24.1012 50.0195 24.7674V60.3139C50.0195 60.98 50.2012 61.4644 50.3829 61.9489L71.0326 42.4498Z" fill="#010202"/>
<path d="M73.4547 42.4497L80.3581 48.8687L87.9277 44.872C90.3499 43.6003 90.3499 41.4808 87.9277 40.2091L80.1765 36.0308L73.4547 42.4497Z" fill="#010202"/>
<path d="M72.2437 41.2993L78.6021 35.1831L54.319 22.3452C53.2896 21.8607 52.2601 21.6791 51.594 22.0424L72.2437 41.2993Z" fill="#010202"/>
<path d="M72.2437 43.54L51.594 62.9786C52.2601 63.2814 53.2896 63.1603 54.5007 62.6758L78.9049 49.8379L72.2437 43.54Z" fill="#010202"/>
<path d="M105.065 24.4648C103.672 24.4648 102.461 24.9493 101.492 25.9182C100.523 26.8871 100.039 28.0982 100.039 29.5516C100.039 31.0049 100.523 32.216 101.492 33.1849C102.461 34.1538 103.672 34.6383 105.065 34.6383C107.003 34.6383 108.638 33.6088 109.486 32.0344V29.2488H105.005V30.6416H107.911V31.7316C107.245 32.7611 106.337 33.2455 105.065 33.2455C104.036 33.2455 103.188 32.8822 102.522 32.216C101.856 31.4894 101.553 30.6416 101.553 29.5516C101.553 28.5221 101.856 27.6138 102.522 26.9477C103.127 26.2815 103.975 25.9182 105.005 25.9182C106.216 25.9182 107.124 26.4632 107.851 27.4927L108.941 26.5238C108.093 25.1915 106.761 24.4648 105.065 24.4648Z" fill="#010202"/>
<path d="M111.424 24.646V34.5167H117.843V33.1239H112.937V29.975H116.51V28.5822H112.937V26.0388H117.661V24.646H111.424Z" fill="#010202"/>
<path d="M118.63 24.646V26.0388H121.839V34.5167H123.353V26.0388H126.563V24.646H118.63Z" fill="#010202"/>
<path d="M131.347 24.646V34.5167H132.86V24.646H131.347Z" fill="#010202"/>
<path d="M134.314 24.646V26.0388H137.523V34.5167H139.037V26.0388H142.247V24.646H134.314Z" fill="#010202"/>
<path d="M151.391 24.4648C149.998 24.4648 148.787 24.9493 147.818 25.9182C146.849 26.8871 146.365 28.0982 146.365 29.5516C146.365 31.0049 146.849 32.216 147.818 33.1849C148.787 34.1538 149.937 34.6383 151.391 34.6383C152.783 34.6383 153.934 34.1538 154.903 33.1849C155.872 32.216 156.356 31.0049 156.356 29.5516C156.356 28.0982 155.872 26.8871 154.903 25.9182C153.995 24.9493 152.783 24.4648 151.391 24.4648ZM151.391 25.9182C152.36 25.9182 153.207 26.2815 153.813 26.9477C154.479 27.6138 154.782 28.5221 154.782 29.5516C154.782 30.6416 154.479 31.4894 153.813 32.1555C153.147 32.8216 152.36 33.1849 151.391 33.1849C150.422 33.1849 149.574 32.8216 148.968 32.1555C148.302 31.4288 148 30.581 148 29.5516C148 28.5221 148.302 27.6138 148.968 26.9477C149.635 26.2815 150.422 25.9182 151.391 25.9182Z" fill="#010202"/>
<path d="M164.531 31.3077L158.779 24.4648H158.234V34.5172H159.747V27.856L165.561 34.6988H166.106V24.6465H164.592V31.3077H164.531Z" fill="#010202"/>
<path d="M108.82 41.8442C106.337 41.8442 104.278 42.692 102.582 44.4482C100.887 46.1437 100.039 48.2632 100.039 50.8066C100.039 53.3499 100.887 55.4694 102.582 57.165C104.278 58.8606 106.337 59.7083 108.82 59.7083C112.15 59.7083 115.117 57.8916 116.571 55.1666V50.3221H108.759V52.8049H113.906V54.6822C112.756 56.4383 111.121 57.2861 108.941 57.2861C107.124 57.2861 105.671 56.6805 104.52 55.4694C103.37 54.2583 102.825 52.6838 102.825 50.8066C102.825 48.9899 103.37 47.476 104.46 46.2649C105.55 45.0537 107.003 44.4482 108.759 44.4482C110.818 44.4482 112.514 45.3565 113.725 47.1732L115.662 45.5382C114.088 43.0554 111.787 41.8442 108.82 41.8442Z" fill="#010202"/>
<path d="M124.201 46.2651C122.384 46.2651 120.81 46.9312 119.538 48.2029C118.266 49.4746 117.661 51.1096 117.661 52.9869C117.661 54.8641 118.266 56.4991 119.538 57.7708C120.81 59.0425 122.324 59.7086 124.201 59.7086C126.018 59.7086 127.532 59.0425 128.864 57.7708C130.135 56.4386 130.802 54.8641 130.802 52.9869C130.802 51.1096 130.135 49.4746 128.864 48.2029C127.592 46.9312 126.018 46.2651 124.201 46.2651ZM124.262 48.8085C125.352 48.8085 126.26 49.2324 126.987 50.0196C127.713 50.8068 128.077 51.7758 128.077 52.9869C128.077 54.1375 127.713 55.1669 126.987 55.9541C126.26 56.7414 125.352 57.1047 124.262 57.1047C123.172 57.1047 122.263 56.7414 121.536 55.9541C120.81 55.1669 120.446 54.1375 120.446 52.9869C120.446 51.7758 120.81 50.8068 121.536 50.0196C122.203 49.1718 123.111 48.8085 124.262 48.8085Z" fill="#010202"/>
<path d="M138.31 46.2651C136.494 46.2651 134.919 46.9312 133.648 48.2029C132.376 49.4746 131.77 51.1096 131.77 52.9869C131.77 54.8641 132.376 56.4991 133.648 57.7708C134.919 59.0425 136.433 59.7086 138.31 59.7086C140.127 59.7086 141.641 59.0425 142.973 57.7708C144.245 56.4386 144.911 54.8641 144.911 52.9869C144.911 51.1096 144.245 49.4746 142.973 48.2029C141.702 46.9312 140.127 46.2651 138.31 46.2651ZM138.371 48.8085C139.461 48.8085 140.369 49.2324 141.096 50.0196C141.823 50.8068 142.186 51.7758 142.186 52.9869C142.186 54.1375 141.823 55.1669 141.096 55.9541C140.369 56.7414 139.461 57.1047 138.371 57.1047C137.281 57.1047 136.373 56.7414 135.646 55.9541C134.919 55.1669 134.556 54.1375 134.556 52.9869C134.556 51.7758 134.919 50.8068 135.646 50.0196C136.312 49.1718 137.22 48.8085 138.371 48.8085Z" fill="#010202"/>
<path d="M156.417 48.3846C155.448 46.9918 153.995 46.2651 152.057 46.2651C150.301 46.2651 148.908 46.8707 147.757 48.0818C146.607 49.2929 146.062 50.8068 146.062 52.7446C146.062 54.6219 146.667 56.1964 147.757 57.4075C148.908 58.6186 150.301 59.2242 152.057 59.2242C153.874 59.2242 155.206 58.6186 156.235 57.4075V58.3158C156.235 60.7381 154.782 62.0098 152.541 62.0098C151.088 62.0098 149.635 61.4042 148.181 60.1931L146.728 62.1309C148.363 63.7659 150.361 64.5531 152.662 64.5531C156.417 64.5531 158.839 62.252 158.839 58.1947V46.689H156.417V48.3846ZM152.481 56.7414C151.391 56.7414 150.543 56.378 149.756 55.6514C149.029 54.8641 148.666 53.8952 148.666 52.7446C148.666 51.5941 149.029 50.6252 149.756 49.838C150.482 49.1113 151.391 48.7479 152.481 48.7479C154.54 48.7479 156.235 50.0802 156.235 52.6841C156.235 54.0163 155.872 54.9852 155.145 55.7119C154.358 56.378 153.51 56.7414 152.481 56.7414Z" fill="#010202"/>
<path d="M161.382 39.7852V59.4054H164.047V39.7852H161.382Z" fill="#010202"/>
<path d="M177.975 52.1386C177.975 50.443 177.43 49.0502 176.34 47.8997C175.25 46.7491 173.918 46.2041 172.283 46.2041C170.466 46.2041 168.952 46.8702 167.741 48.1419C166.53 49.4136 165.924 51.0486 165.924 52.9259C165.924 54.8637 166.53 56.4381 167.801 57.7098C169.073 58.9815 170.648 59.6476 172.585 59.6476C174.463 59.6476 176.098 58.9815 177.551 57.5887L176.279 55.7114C175.189 56.7409 173.978 57.2253 172.646 57.2253C170.526 57.2253 168.952 55.9537 168.589 53.8342H177.793C177.914 53.2892 177.975 52.6836 177.975 52.1386ZM172.162 48.6264C173.978 48.6264 175.31 49.8375 175.31 51.7753H168.589C169.013 49.8375 170.405 48.6264 172.162 48.6264Z" fill="#010202"/>
<path d="M185.726 42.147V59.4055H188.391V52.7443H191.782C193.477 52.7443 194.81 52.2599 195.9 51.291C196.929 50.3221 197.474 48.9898 197.474 47.4154C197.474 45.8409 196.929 44.5692 195.9 43.6003C194.87 42.6314 193.477 42.147 191.782 42.147H185.726ZM191.782 44.5692C193.659 44.5692 194.749 45.7198 194.749 47.4154C194.749 49.111 193.659 50.2615 191.782 50.2615H188.451V44.5692H191.782Z" fill="#010202"/>
<path d="M198.988 39.7852V59.4054H201.652V39.7852H198.988Z" fill="#010202"/>
<path d="M208.98 46.2651C206.739 46.2651 204.983 47.1735 203.772 48.9902L205.286 50.6252C206.315 49.3535 207.466 48.6874 208.737 48.6874C210.433 48.6874 211.402 49.6563 211.402 51.4124V52.2602H207.89C205.104 52.2602 203.348 53.7136 203.348 55.9541C203.348 58.1947 205.043 59.6481 207.647 59.6481C209.343 59.6481 210.675 59.0425 211.584 57.8919V59.3453H214.066V51.5941C214.066 48.2029 212.068 46.2651 208.98 46.2651ZM208.192 57.5891C206.921 57.5891 206.012 56.9836 206.012 55.8936C206.012 54.8641 206.739 54.3191 208.192 54.3191H211.341V54.5613C211.402 56.3175 209.949 57.5891 208.192 57.5891Z" fill="#010202"/>
<path d="M221.454 55.9541L217.881 46.5679H215.035L220.001 58.8608L219.516 60.0719C218.911 61.5253 218.063 61.9492 216.791 61.9492C216.61 61.9492 216.125 61.9492 215.338 61.828V64.1292C216.004 64.3109 216.731 64.3714 217.397 64.3714C219.516 64.3714 220.909 63.2814 221.939 60.8592L227.994 46.5679H225.148L221.454 55.9541Z" fill="#010202"/>
</svg>
