<svg width="22" height="22" viewBox="0 0 22 22" fill="none" xmlns="http://www.w3.org/2000/svg">
<path d="M6.37878 0C2.86172 0 0 2.86341 0 6.38135V15.4954C0 19.0129 2.86341 21.875 6.38135 21.875H15.4954C19.0129 21.875 21.875 19.0116 21.875 15.4937V6.37878C21.875 2.86172 19.0116 0 15.4937 0H6.37878ZM17.5 3.5C17.983 3.5 18.375 3.892 18.375 4.375C18.375 4.858 17.983 5.25 17.5 5.25C17.017 5.25 16.625 4.858 16.625 4.375C16.625 3.892 17.017 3.5 17.5 3.5ZM10.9375 5.25C14.0744 5.25 16.625 7.80062 16.625 10.9375C16.625 14.0744 14.0739 16.625 10.9375 16.625C7.80062 16.625 5.25 14.0739 5.25 10.9375C5.25 7.80106 7.80062 5.25 10.9375 5.25ZM10.9375 7C8.76269 7 7 8.76269 7 10.9375C7 13.1123 8.76269 14.875 10.9375 14.875C13.1123 14.875 14.875 13.1123 14.875 10.9375C14.875 8.76269 13.1123 7 10.9375 7Z" fill="#100840"/>
</svg>
