<svg width="50" height="50" viewBox="0 0 50 50" fill="none" xmlns="http://www.w3.org/2000/svg">
<g clip-path="url(#clip0_1881_7014)">
<mask id="mask0_1881_7014" style="mask-type:luminance" maskUnits="userSpaceOnUse" x="0" y="0" width="50" height="50">
<path d="M50 0H0V50H50V0Z" fill="white"/>
</mask>
<g mask="url(#mask0_1881_7014)">
<path d="M-0.316406 24.7129C-0.316406 10.9058 10.8765 -0.287109 24.6836 -0.287109C38.4907 -0.287109 49.6836 10.9058 49.6836 24.7129V47.7129C49.6836 48.8175 48.7882 49.7129 47.6836 49.7129H1.68359C0.579025 49.7129 -0.316406 48.8175 -0.316406 47.7129V24.7129Z" fill="#22E19C"/>
<path fill-rule="evenodd" clip-rule="evenodd" d="M23.8911 35.9624C23.8911 36.1899 23.6554 36.3408 23.4488 36.2455V36.2455C20.6537 34.962 17.4395 34.962 14.6442 36.2455C14.1381 36.4781 13.7813 36.6422 13.7152 36.6729C13.4883 36.7768 13.3471 36.7561 13.3471 36.7561C12.8752 36.7561 12.4922 36.3732 12.4922 35.9012V19.1415C12.4922 18.8076 12.687 18.5044 12.9902 18.3652L13.9306 17.9332C16.8876 16.5743 20.2505 16.453 23.2798 17.5684C23.6546 17.7065 23.8911 18.0712 23.8911 18.4706L23.8911 35.9624Z" fill="white"/>
<path fill-rule="evenodd" clip-rule="evenodd" d="M25.6008 18.4707C25.6008 18.0713 25.8373 17.7066 26.2121 17.5686C29.2412 16.4531 32.6039 16.5744 35.5612 17.9333L36.5017 18.3653C36.8049 18.5044 36.9997 18.8077 36.9997 19.1416V35.9013C36.9997 36.3733 36.6167 36.7563 36.1448 36.7563C36.1448 36.7563 36.0444 36.7711 35.8757 36.7129C35.8404 36.7015 35.8063 36.6868 35.7731 36.6708L34.8475 36.2456C32.0525 34.9621 28.8382 34.9621 26.0429 36.2456V36.2456C25.8363 36.3409 25.6006 36.19 25.6006 35.9625L25.6008 18.4707Z" fill="white"/>
</g>
</g>
<defs>
<clipPath id="clip0_1881_7014">
<rect width="50" height="50" fill="white"/>
</clipPath>
</defs>
</svg>
