<svg width="22" height="22" viewBox="0 0 22 22" fill="none" xmlns="http://www.w3.org/2000/svg">
<g clip-path="url(#clip0_1901_6845)" filter="url(#filter0_i_1901_6845)">
<path fill-rule="evenodd" clip-rule="evenodd" d="M2.7206e-07 1.83801C2.7206e-07 1.35054 0.193646 0.88304 0.538338 0.538348C0.88303 0.193656 1.35053 1.00797e-05 1.838 1.00797e-05H20.16C20.4016 -0.000384472 20.6409 0.046873 20.8641 0.139077C21.0874 0.231281 21.2903 0.36662 21.4613 0.537346C21.6322 0.708073 21.7677 0.910834 21.8602 1.13402C21.9526 1.35721 22.0001 1.59644 22 1.83801V20.16C22.0003 20.4016 21.9529 20.6409 21.8606 20.8642C21.7683 21.0875 21.6328 21.2904 21.462 21.4613C21.2912 21.6322 21.0884 21.7678 20.8651 21.8602C20.6419 21.9526 20.4026 22.0001 20.161 22H1.838C1.59655 22 1.35746 21.9524 1.1344 21.86C0.911336 21.7676 0.708672 21.6321 0.537984 21.4613C0.367297 21.2905 0.231932 21.0878 0.139623 20.8647C0.0473133 20.6416 -0.000131096 20.4025 2.7206e-07 20.161V1.83801ZM8.708 8.38801H11.687V9.88401C12.117 9.02401 13.217 8.25001 14.87 8.25001C18.039 8.25001 18.79 9.96301 18.79 13.106V18.928H15.583V13.822C15.583 12.032 15.153 11.022 14.061 11.022C12.546 11.022 11.916 12.111 11.916 13.822V18.928H8.708V8.38801ZM3.208 18.791H6.416V8.25001H3.208V18.79V18.791ZM6.875 4.81201C6.88105 5.08668 6.83217 5.3598 6.73124 5.61533C6.63031 5.87085 6.47935 6.10365 6.28723 6.30004C6.09511 6.49644 5.8657 6.65248 5.61246 6.75902C5.35921 6.86555 5.08724 6.92043 4.8125 6.92043C4.53776 6.92043 4.26579 6.86555 4.01255 6.75902C3.7593 6.65248 3.52989 6.49644 3.33777 6.30004C3.14565 6.10365 2.99469 5.87085 2.89376 5.61533C2.79283 5.3598 2.74395 5.08668 2.75 4.81201C2.76187 4.27286 2.98439 3.7598 3.36989 3.3827C3.75539 3.00559 4.27322 2.79443 4.8125 2.79443C5.35178 2.79443 5.86962 3.00559 6.25512 3.3827C6.64062 3.7598 6.86313 4.27286 6.875 4.81201V4.81201Z" fill="#110840"/>
</g>
<defs>
<filter id="filter0_i_1901_6845" x="0" y="0" width="22" height="26" filterUnits="userSpaceOnUse" color-interpolation-filters="sRGB">
<feFlood flood-opacity="0" result="BackgroundImageFix"/>
<feBlend mode="normal" in="SourceGraphic" in2="BackgroundImageFix" result="shape"/>
<feColorMatrix in="SourceAlpha" type="matrix" values="0 0 0 0 0 0 0 0 0 0 0 0 0 0 0 0 0 0 127 0" result="hardAlpha"/>
<feOffset dy="4"/>
<feGaussianBlur stdDeviation="7.5"/>
<feComposite in2="hardAlpha" operator="arithmetic" k2="-1" k3="1"/>
<feColorMatrix type="matrix" values="0 0 0 0 0 0 0 0 0 0 0 0 0 0 0 0 0 0 0.2 0"/>
<feBlend mode="normal" in2="shape" result="effect1_innerShadow_1901_6845"/>
</filter>
<clipPath id="clip0_1901_6845">
<rect width="22" height="22" fill="white"/>
</clipPath>
</defs>
</svg>
