<svg width="797" height="119" viewBox="0 0 797 119" fill="none" xmlns="http://www.w3.org/2000/svg">
<path fill-rule="evenodd" clip-rule="evenodd" d="M141.511 1.62125e-05V58.0961C141.511 65.6961 137.139 72.6219 130.269 75.906L115.269 83.0764C115.153 83.1386 115.037 83.2005 114.922 83.2622C89.8638 96.6387 82.3633 100.643 73.6397 118.775V90.2219L73.6397 44.8809C73.6397 37.2808 78.0112 30.3551 84.8813 27.0709L141.511 1.62125e-05Z" fill="url(#paint0_radial_166_389)"/>
<path fill-rule="evenodd" clip-rule="evenodd" d="M0 5.72205e-06V58.0961C0 65.6961 4.37152 72.6219 11.2416 75.906L26.2407 83.0761C26.3573 83.1383 26.4735 83.2004 26.5893 83.2622C51.647 96.6387 59.1475 100.643 67.8711 118.775V102.977V90.2219V44.8809C67.8711 37.2808 63.4996 30.355 56.6295 27.0709L0 5.72205e-06Z" fill="url(#paint1_radial_166_389)"/>
<path d="M217.471 87.9013L195.473 59.0048V87.9013H179.533V22.4647H195.473V51.1748L217.285 22.4647H236.021L210.667 54.5305L236.953 87.9013H217.471Z" fill="#D53F5E"/>
<path d="M301.203 87.9013H285.263L258.604 47.5394V87.9013H242.664V22.4647H258.604L285.263 63.0131V22.4647H301.203V87.9013Z" fill="#D53F5E"/>
<path d="M351.907 22.4647V67.0213C351.907 73.9192 349.95 79.2324 346.035 82.961C342.182 86.6896 336.962 88.5538 330.375 88.5538C323.477 88.5538 317.946 86.5963 313.782 82.6813C309.619 78.7663 307.537 73.2045 307.537 65.9959H323.384C323.384 68.7302 323.943 70.812 325.061 72.2413C326.18 73.6084 327.796 74.292 329.909 74.292C331.835 74.292 333.326 73.6706 334.383 72.4277C335.439 71.1849 335.967 69.3827 335.967 67.0213V22.4647H351.907Z" fill="#D53F5E"/>
<path d="M378.858 22.4647V87.9013H362.918V22.4647H378.858Z" fill="#D53F5E"/>
<path d="M431.983 43.1583C430.802 40.9833 429.093 39.3365 426.856 38.218C424.681 37.0373 422.102 36.4469 419.119 36.4469C413.961 36.4469 409.829 38.1558 406.722 41.5737C403.615 44.9294 402.061 49.4348 402.061 55.0898C402.061 61.1177 403.677 65.8406 406.908 69.2584C410.202 72.6142 414.707 74.292 420.424 74.292C424.339 74.292 427.633 73.2977 430.305 71.3092C433.039 69.3206 435.028 66.462 436.271 62.7334H416.043V50.9884H450.719V65.8095C449.538 69.7866 447.519 73.4842 444.66 76.902C441.864 80.3199 438.29 83.0853 433.94 85.1981C429.59 87.311 424.681 88.3674 419.212 88.3674C412.75 88.3674 406.97 86.9692 401.875 84.1728C396.841 81.3142 392.895 77.3681 390.036 72.3345C387.24 67.3009 385.842 61.5527 385.842 55.0898C385.842 48.6269 387.24 42.8787 390.036 37.8451C392.895 32.7494 396.841 28.8033 401.875 26.0069C406.908 23.1483 412.656 21.719 419.119 21.719C426.949 21.719 433.536 23.6144 438.881 27.4051C444.287 31.1958 447.86 36.4469 449.6 43.1583H431.983Z" fill="#D53F5E"/>
<path d="M498.419 76.3427H473.996L470.081 87.9013H453.396L477.073 22.4647H495.529L519.206 87.9013H502.334L498.419 76.3427ZM494.317 64.0384L486.208 40.0823L478.191 64.0384H494.317Z" fill="#D53F5E"/>
<path d="M574.417 43.5312C574.417 47.3219 573.547 50.8019 571.807 53.9712C570.067 57.0784 567.395 59.5952 563.79 61.5216C560.186 63.4481 555.712 64.4113 550.368 64.4113H540.487V87.9013H524.547V22.4647H550.368C555.588 22.4647 560 23.3658 563.604 25.1679C567.208 26.9701 569.912 29.4558 571.714 32.6251C573.516 35.7944 574.417 39.4298 574.417 43.5312ZM549.156 51.7341C552.201 51.7341 554.469 51.0194 555.96 49.5902C557.452 48.1609 558.198 46.1412 558.198 43.5312C558.198 40.9212 557.452 38.9015 555.96 37.4723C554.469 36.043 552.201 35.3283 549.156 35.3283H540.487V51.7341H549.156Z" fill="#D53F5E"/>
<path d="M614.222 87.9013L600.612 63.1995H596.791V87.9013H580.851V22.4647H607.604C612.761 22.4647 617.142 23.3658 620.747 25.1679C624.413 26.9701 627.148 29.4558 628.95 32.6251C630.752 35.7323 631.653 39.2123 631.653 43.0651C631.653 47.4151 630.41 51.2991 627.924 54.717C625.501 58.1348 621.896 60.5584 617.111 61.9877L632.212 87.9013H614.222ZM596.791 51.9205H606.671C609.592 51.9205 611.767 51.2059 613.196 49.7766C614.688 48.3473 615.434 46.3276 615.434 43.7176C615.434 41.2319 614.688 39.2744 613.196 37.8451C611.767 36.4158 609.592 35.7012 606.671 35.7012H596.791V51.9205Z" fill="#D53F5E"/>
<path d="M655.734 22.4647V87.9013H639.795V22.4647H655.734Z" fill="#D53F5E"/>
<path d="M662.718 55.0898C662.718 48.6269 664.116 42.8787 666.913 37.8451C669.709 32.7494 673.593 28.8033 678.565 26.0069C683.598 23.1483 689.284 21.719 695.623 21.719C703.391 21.719 710.04 23.7697 715.571 27.8712C721.101 31.9726 724.799 37.5655 726.663 44.6498H709.139C707.834 41.9155 705.97 39.8337 703.546 38.4044C701.185 36.9751 698.481 36.2605 695.436 36.2605C690.527 36.2605 686.55 37.9694 683.505 41.3873C680.46 44.8051 678.937 49.3726 678.937 55.0898C678.937 60.807 680.46 65.3745 683.505 68.7924C686.55 72.2102 690.527 73.9192 695.436 73.9192C698.481 73.9192 701.185 73.2045 703.546 71.7752C705.97 70.3459 707.834 68.2641 709.139 65.5298H726.663C724.799 72.6142 721.101 78.207 715.571 82.3085C710.04 86.3478 703.391 88.3674 695.623 88.3674C689.284 88.3674 683.598 86.9692 678.565 84.1728C673.593 81.3142 669.709 77.3681 666.913 72.3345C664.116 67.3009 662.718 61.5527 662.718 55.0898ZM709.885 10.9993L695.436 18.3633L680.988 10.9993V0L695.436 8.10966L709.885 0V10.9993Z" fill="#D53F5E"/>
<path d="M775.295 76.3427H750.873L746.958 87.9013H730.272L753.949 22.4647H772.405L796.082 87.9013H779.21L775.295 76.3427ZM771.194 64.0384L763.084 40.0823L755.068 64.0384H771.194Z" fill="#D53F5E"/>
<defs>
<radialGradient id="paint0_radial_166_389" cx="0" cy="0" r="1" gradientUnits="userSpaceOnUse" gradientTransform="translate(83.4843 46.977) rotate(-50.8779) scale(137.471 187.536)">
<stop stop-color="#ED505D"/>
<stop offset="1" stop-color="#C23956"/>
</radialGradient>
<radialGradient id="paint1_radial_166_389" cx="0" cy="0" r="1" gradientUnits="userSpaceOnUse" gradientTransform="translate(58.0266 46.977) rotate(-129.122) scale(137.471 187.536)">
<stop stop-color="#ED505D"/>
<stop offset="1" stop-color="#C23956"/>
</radialGradient>
</defs>
</svg>
