<svg width="51" height="50" viewBox="0 0 51 50" fill="none" xmlns="http://www.w3.org/2000/svg">
<mask id="mask0_1881_7002" style="mask-type:luminance" maskUnits="userSpaceOnUse" x="0" y="0" width="51" height="50">
<path d="M50.6836 0H0.683594V50H50.6836V0Z" fill="white"/>
</mask>
<g mask="url(#mask0_1881_7002)">
<path d="M0.683594 24.7129C0.683594 10.9058 11.8765 -0.287109 25.6836 -0.287109C39.4907 -0.287109 50.6836 10.9058 50.6836 24.7129V47.7129C50.6836 48.8175 49.7882 49.7129 48.6836 49.7129H25.6836C11.8765 49.7129 0.683594 38.52 0.683594 24.7129Z" fill="#0080FF"/>
<path d="M37 31.3333C37 32.0405 36.7102 32.7188 36.1945 33.2189C35.6788 33.7191 34.9793 34 34.25 34H32.8749C32.1455 34 31.4462 33.7191 30.9305 33.2189C30.4146 32.7188 30.1249 32.0405 30.1249 31.3333V28C30.1249 27.2927 30.4146 26.6145 30.9305 26.1143C31.4462 25.6142 32.1455 25.3333 32.8749 25.3333H34.25V24.6666C34.25 22.5448 33.3807 20.5099 31.8335 19.0099C30.2864 17.5097 28.188 16.6667 26 16.6667C23.812 16.6667 21.7134 17.5097 20.1665 19.0099C18.6193 20.5102 17.75 22.545 17.75 24.6666V25.3333H19.1251C19.8545 25.3333 20.5538 25.6142 21.0695 26.1143C21.5854 26.6145 21.8751 27.2927 21.8751 28V31.3333C21.8751 32.0405 21.5854 32.7188 21.0695 33.2189C20.5538 33.7191 19.8545 34 19.1251 34H17.75C17.0208 34 16.3212 33.7191 15.8055 33.2189C15.2898 32.7188 15 32.0405 15 31.3333V24.6667C15 21.8377 16.1589 19.1246 18.2218 17.1242C20.2847 15.1238 23.0826 14 26 14C28.9173 14 31.7152 15.1238 33.7781 17.1242C35.841 19.1246 36.9999 21.8377 36.9999 24.6667L37 31.3333Z" fill="white"/>
</g>
</svg>
