<svg width="51" height="50" viewBox="0 0 51 50" fill="none" xmlns="http://www.w3.org/2000/svg">
<g clip-path="url(#clip0_1917_6944)">
<mask id="mask0_1917_6944" style="mask-type:luminance" maskUnits="userSpaceOnUse" x="0" y="0" width="51" height="50">
<path d="M51 0H0V50H51V0Z" fill="white"/>
</mask>
<g mask="url(#mask0_1917_6944)">
<mask id="mask1_1917_6944" style="mask-type:luminance" maskUnits="userSpaceOnUse" x="0" y="0" width="51" height="50">
<path d="M50.3164 0H0.316406V50H50.3164V0Z" fill="white"/>
</mask>
<g mask="url(#mask1_1917_6944)">
<path d="M25.6836 49.7129C11.8765 49.7129 0.683594 38.52 0.683594 24.7129C0.683594 10.9058 11.8765 -0.287109 25.6836 -0.287109H48.6836C49.7882 -0.287109 50.6836 0.608321 50.6836 1.71289V47.7129C50.6836 48.8175 49.7882 49.7129 48.6836 49.7129H25.6836Z" fill="#B81BD1"/>
<path d="M40.7305 23.5184L37.1363 19.274L39.2575 14.1159C39.4342 13.7033 39.3165 13.2613 39.0218 12.937C38.7271 12.6422 38.2558 12.5244 37.8434 12.7012L32.6877 14.8234L28.4746 11.2568C28.1505 10.962 27.6791 10.9326 27.2962 11.1094C26.9132 11.3158 26.6774 11.7285 26.707 12.1411L27.1195 17.6824L22.3762 20.6005C21.9931 20.8363 21.8164 21.2489 21.8754 21.691C21.9048 21.9268 22.0227 22.133 22.1701 22.2804C22.3174 22.4278 22.4942 22.5162 22.6709 22.5752L26.5007 23.5183L13.4199 36.6051C12.86 37.1652 12.86 38.0495 13.4199 38.5799C13.9797 39.14 14.8635 39.14 15.3938 38.5799L28.4746 25.4931L29.3879 29.2953C29.5057 29.7079 29.8297 30.0322 30.2718 30.0912C30.7136 30.1502 31.1261 29.9733 31.3618 29.5901L34.2785 24.8447L39.8467 25.2869C40.2886 25.3163 40.701 25.0805 40.878 24.6975C41.0841 24.3142 41.0251 23.8426 40.7307 23.5184L40.7305 23.5184Z" fill="white"/>
</g>
</g>
</g>
<defs>
<clipPath id="clip0_1917_6944">
<rect width="51" height="50" fill="white"/>
</clipPath>
</defs>
</svg>
