<svg width="24" height="24" viewBox="0 0 24 24" fill="none" xmlns="http://www.w3.org/2000/svg">
<g filter="url(#filter0_i_1901_6862)">
<path d="M12.5302 0.02025C13.839 0 15.1402 0.012 16.44 0C16.5187 1.53075 17.0692 3.09 18.1897 4.17225C19.308 5.2815 20.8897 5.78925 22.4287 5.961V9.98775C20.9865 9.9405 19.5375 9.6405 18.2287 9.0195C17.6587 8.7615 17.1277 8.42925 16.608 8.0895C16.6012 11.0115 16.62 13.9297 16.5892 16.8397C16.5112 18.2377 16.05 19.629 15.237 20.781C13.929 22.6988 11.6587 23.949 9.32698 23.988C7.89673 24.0697 6.46798 23.6797 5.24923 22.9612C3.22948 21.7702 1.80823 19.59 1.60123 17.25C1.57515 16.7544 1.57115 16.2579 1.58923 15.762C1.76923 13.8593 2.71048 12.039 4.17148 10.8008C5.82748 9.3585 8.14723 8.6715 10.3192 9.078C10.3395 10.5593 10.2802 12.039 10.2802 13.5203C9.28798 13.1993 8.12848 13.2892 7.26148 13.8915C6.62716 14.3094 6.1478 14.9242 5.89723 15.6412C5.69023 16.1482 5.74948 16.7115 5.76148 17.25C5.99923 18.891 7.57723 20.2702 9.26173 20.121C10.3785 20.109 11.4487 19.461 12.0307 18.5123C12.219 18.18 12.4297 17.8403 12.441 17.4495C12.5392 15.6608 12.5002 13.8795 12.5122 12.0908C12.5205 8.0595 12.5002 4.0395 12.531 0.021L12.5302 0.02025Z" fill="#110840"/>
</g>
<defs>
<filter id="filter0_i_1901_6862" x="0" y="0" width="24" height="28" filterUnits="userSpaceOnUse" color-interpolation-filters="sRGB">
<feFlood flood-opacity="0" result="BackgroundImageFix"/>
<feBlend mode="normal" in="SourceGraphic" in2="BackgroundImageFix" result="shape"/>
<feColorMatrix in="SourceAlpha" type="matrix" values="0 0 0 0 0 0 0 0 0 0 0 0 0 0 0 0 0 0 127 0" result="hardAlpha"/>
<feOffset dy="4"/>
<feGaussianBlur stdDeviation="7.5"/>
<feComposite in2="hardAlpha" operator="arithmetic" k2="-1" k3="1"/>
<feColorMatrix type="matrix" values="0 0 0 0 0 0 0 0 0 0 0 0 0 0 0 0 0 0 0.2 0"/>
<feBlend mode="normal" in2="shape" result="effect1_innerShadow_1901_6862"/>
</filter>
</defs>
</svg>
