<svg width="35" height="24" viewBox="0 0 35 24" fill="none" xmlns="http://www.w3.org/2000/svg">
<path fill-rule="evenodd" clip-rule="evenodd" d="M30.5506 0.734118C32.0188 1.12941 33.1765 2.28706 33.5718 3.75529C34.3059 6.43765 34.2776 12.0282 34.2776 12.0282C34.2776 12.0282 34.2776 17.5906 33.5718 20.2729C33.1765 21.7412 32.0188 22.8988 30.5506 23.2941C27.8682 24 17.1388 24 17.1388 24C17.1388 24 6.43765 24 3.72706 23.2659C2.25882 22.8706 1.10118 21.7129 0.705882 20.2447C0 17.5906 0 12 0 12C0 12 0 6.43765 0.705882 3.75529C1.10118 2.28706 2.28706 1.10118 3.72706 0.705882C6.40941 0 17.1388 0 17.1388 0C17.1388 0 27.8682 0 30.5506 0.734118ZM22.6447 12L13.7223 17.1388V6.86118L22.6447 12Z" fill="#110840"/>
</svg>
